<svg width="480" height="480" viewBox="0 0 480 480" fill="none" xmlns="http://www.w3.org/2000/svg">
<g clip-path="url(#clip0)">
<path d="M100 0H20C8.96 0 0 8.96 0 20V100C0 111.04 8.96 120 20 120H100C111.04 120 120 111.04 120 100V20C120 8.96 111.04 0 100 0Z" fill="#FEFEFE"/>
<path d="M100 180H20C8.96 180 0 188.96 0 200V280C0 291.04 8.96 300 20 300H100C111.04 300 120 291.04 120 280V200C120 188.96 111.04 180 100 180Z" fill="#FEFEFE"/>
<path d="M100 360H20C8.96 360 0 368.96 0 380V460C0 471.04 8.96 480 20 480H100C111.04 480 120 471.04 120 460V380C120 368.96 111.04 360 100 360Z" fill="#FEFEFE"/>
<path d="M280 0H200C188.96 0 180 8.96 180 20V100C180 111.04 188.96 120 200 120H280C291.04 120 300 111.04 300 100V20C300 8.96 291.04 0 280 0Z" fill="#FEFEFE"/>
<path d="M280 180H200C188.96 180 180 188.96 180 200V280C180 291.04 188.96 300 200 300H280C291.04 300 300 291.04 300 280V200C300 188.96 291.04 180 280 180Z" fill="#FEFEFE"/>
<path d="M280 360H200C188.96 360 180 368.96 180 380V460C180 471.04 188.96 480 200 480H280C291.04 480 300 471.04 300 460V380C300 368.96 291.04 360 280 360Z" fill="#FEFEFE"/>
<path d="M460 0H380C368.96 0 360 8.96 360 20V100C360 111.04 368.96 120 380 120H460C471.04 120 480 111.04 480 100V20C480 8.96 471.04 0 460 0Z" fill="#FEFEFE"/>
<path d="M460 180H380C368.96 180 360 188.96 360 200V280C360 291.04 368.96 300 380 300H460C471.04 300 480 291.04 480 280V200C480 188.96 471.04 180 460 180Z" fill="#FEFEFE"/>
<path d="M460 360H380C368.96 360 360 368.96 360 380V460C360 471.04 368.96 480 380 480H460C471.04 480 480 471.04 480 460V380C480 368.96 471.04 360 460 360Z" fill="#FEFEFE"/>
</g>
<defs>
<clipPath id="clip0">
<rect width="480" height="480" fill="white"/>
</clipPath>
</defs>
</svg>
