<svg width="480" height="480" viewBox="0 0 480 480" fill="none" xmlns="http://www.w3.org/2000/svg">
<path d="M476.507 221.866L252.496 38.784C245.22 32.8389 234.771 32.8389 227.499 38.784L170.121 85.6869V61.3429C170.121 56.0849 165.866 51.8374 160.608 51.8374H105.393C100.135 51.8374 95.8792 56.0891 95.8792 61.3429V146.364L3.49205 221.866C-0.579156 225.185 -1.17186 231.182 2.14562 235.249C4.02923 237.545 6.7679 238.751 9.53016 238.751C11.6456 238.751 13.7679 238.041 15.5377 236.606L63.4955 197.4V436.163C63.4955 441.417 67.7513 445.674 72.9982 445.674H407.004C412.252 445.674 416.518 441.419 416.518 436.163V197.406L464.475 236.612C466.243 238.051 468.372 238.756 470.48 238.756C473.234 238.756 475.972 237.549 477.857 235.253C481.171 231.182 480.578 225.193 476.507 221.866ZM114.903 70.8484H151.091V101.231L114.903 130.81V70.8484ZM397.497 426.65H82.5065V181.858L231.857 59.7925C236.596 55.9184 243.4 55.9184 248.141 59.7925L397.497 181.858V426.65V426.65Z" fill="#FEFEFE"/>
</svg>
