<svg width="480" height="480" viewBox="0 0 480 480" fill="none" xmlns="http://www.w3.org/2000/svg">
<g clip-path="url(#clip0)">
<path d="M195.593 2.34828C193.455 0.195326 190.279 -0.550978 187.407 0.418046L56.2956 44.1179L15.663 3.48141C12.5215 0.449305 7.53182 0.492286 4.44501 3.5791C1.3582 6.66591 1.31522 11.6595 4.34733 14.7971L44.9721 55.4336L1.27224 186.541C0.318844 189.417 1.06515 192.586 3.21029 194.731L286.13 477.658C289.256 480.78 294.32 480.78 297.446 477.658L478.52 296.58C481.646 293.458 481.646 288.39 478.52 285.268L195.593 2.34828ZM291.788 460.685L18.0074 186.912L57.6163 68.0856L88.6407 99.11C77.3172 116.244 80.8025 139.176 96.7133 152.164C112.624 165.156 135.787 163.992 150.314 149.464C164.838 134.94 166.002 111.778 153.014 95.8669C140.022 79.9562 117.094 76.4669 99.9564 87.7943L68.9476 56.7699L187.774 17.1415L461.547 290.899L291.788 460.685ZM116.379 126.829C119.517 129.861 124.51 129.818 127.597 126.731C130.684 123.644 130.727 118.655 127.695 115.513L111.761 99.5672C120.896 95.1128 131.856 96.9688 139.018 104.182C147.771 112.805 148.634 126.633 141.019 136.277C133.403 145.916 119.751 148.284 109.334 141.763C98.9209 135.241 95.0839 121.929 100.429 110.867L116.379 126.829Z" fill="#FEFEFE"/>
</g>
<defs>
<clipPath id="clip0">
<rect width="480" height="480" fill="white"/>
</clipPath>
</defs>
</svg>
