<svg width="480" height="480" viewBox="0 0 480 480" fill="none" xmlns="http://www.w3.org/2000/svg">
<path d="M240 0C107.664 0 0 107.664 0 240C0 297.96 20.656 351.184 54.992 392.704C55.08 392.824 55.088 392.976 55.184 393.088C79.976 422.984 111.112 445.904 145.808 460.712C146.208 460.88 146.6 461.064 147 461.232C149.808 462.416 152.648 463.512 155.496 464.584C156.616 465.008 157.736 465.44 158.872 465.848C161.328 466.728 163.8 467.56 166.288 468.36C167.88 468.872 169.472 469.376 171.08 469.856C173.28 470.512 175.488 471.144 177.712 471.744C179.664 472.272 181.632 472.76 183.6 473.232C185.592 473.712 187.592 474.192 189.6 474.616C191.84 475.096 194.104 475.52 196.376 475.936C198.2 476.272 200.016 476.624 201.856 476.92C204.376 477.328 206.912 477.648 209.456 477.976C211.096 478.184 212.728 478.424 214.376 478.6C217.256 478.904 220.16 479.12 223.072 479.32C224.424 479.416 225.768 479.56 227.128 479.632C231.376 479.872 235.672 480 240 480C244.328 480 248.624 479.872 252.888 479.648C254.248 479.576 255.592 479.432 256.944 479.336C259.856 479.128 262.76 478.92 265.64 478.616C267.288 478.44 268.92 478.2 270.56 477.992C273.104 477.664 275.64 477.344 278.16 476.936C279.992 476.64 281.816 476.288 283.64 475.952C285.904 475.536 288.168 475.112 290.416 474.632C292.424 474.2 294.416 473.728 296.416 473.248C298.384 472.768 300.352 472.28 302.304 471.76C304.528 471.168 306.736 470.528 308.936 469.872C310.544 469.392 312.136 468.888 313.728 468.376C316.216 467.576 318.688 466.744 321.144 465.864C322.272 465.456 323.392 465.024 324.52 464.6C327.376 463.528 330.208 462.424 333.016 461.248C333.416 461.08 333.808 460.896 334.208 460.728C368.896 445.92 400.04 423 424.832 393.104C424.928 392.992 424.936 392.832 425.024 392.72C459.344 351.184 480 297.96 480 240C480 107.664 372.336 0 240 0ZM337.256 441.76C337.136 441.816 337.024 441.88 336.904 441.936C334.048 443.312 331.144 444.608 328.216 445.872C327.552 446.152 326.896 446.44 326.232 446.72C323.672 447.792 321.08 448.808 318.472 449.784C317.384 450.192 316.296 450.592 315.2 450.976C312.888 451.8 310.568 452.592 308.224 453.344C306.768 453.808 305.304 454.248 303.84 454.68C301.76 455.304 299.672 455.904 297.56 456.464C295.784 456.936 293.992 457.368 292.2 457.792C290.32 458.24 288.448 458.696 286.552 459.096C284.48 459.536 282.392 459.912 280.312 460.288C278.624 460.6 276.944 460.928 275.24 461.2C272.896 461.568 270.528 461.864 268.168 462.16C266.672 462.352 265.184 462.576 263.672 462.736C260.976 463.024 258.256 463.208 255.544 463.4C254.336 463.48 253.136 463.616 251.912 463.68C247.952 463.888 243.984 464 240 464C236.016 464 232.048 463.888 228.096 463.68C226.88 463.616 225.68 463.488 224.464 463.4C221.744 463.216 219.032 463.024 216.336 462.736C214.824 462.576 213.336 462.352 211.84 462.16C209.48 461.864 207.112 461.568 204.768 461.2C203.064 460.928 201.384 460.6 199.696 460.288C197.608 459.912 195.52 459.528 193.456 459.096C191.56 458.696 189.68 458.24 187.808 457.792C186.016 457.36 184.224 456.936 182.448 456.464C180.344 455.904 178.248 455.296 176.168 454.68C174.704 454.248 173.24 453.808 171.784 453.344C169.44 452.592 167.112 451.8 164.808 450.976C163.712 450.584 162.624 450.184 161.536 449.784C158.928 448.808 156.336 447.792 153.776 446.72C153.112 446.448 152.464 446.16 151.8 445.88C148.872 444.624 145.968 443.32 143.104 441.944C142.984 441.888 142.872 441.832 142.752 441.768C114.84 428.264 90.184 409.096 70.176 385.816C85.64 328.872 129.416 282.968 185.736 264.704C186.848 265.384 188.008 265.992 189.152 266.632C189.824 267.008 190.488 267.408 191.168 267.768C193.552 269.032 195.968 270.216 198.44 271.28C200.336 272.112 202.296 272.816 204.248 273.536C204.632 273.672 205.016 273.824 205.4 273.96C216.248 277.8 227.856 280 240 280C252.144 280 263.752 277.8 274.592 273.96C274.976 273.824 275.36 273.672 275.744 273.536C277.696 272.816 279.656 272.112 281.552 271.28C284.024 270.216 286.44 269.032 288.824 267.768C289.504 267.4 290.168 267.008 290.84 266.632C291.984 265.992 293.152 265.384 294.272 264.696C350.592 282.968 394.36 328.872 409.832 385.808C389.824 409.08 365.168 428.248 337.256 441.76ZM152 176C152 127.48 191.48 88 240 88C288.52 88 328 127.48 328 176C328 206.864 311.992 234.024 287.872 249.736C284.72 251.784 281.44 253.616 278.072 255.216C277.672 255.408 277.28 255.608 276.88 255.792C253.712 266.328 226.288 266.328 203.12 255.792C202.72 255.608 202.32 255.408 201.928 255.216C198.552 253.616 195.28 251.784 192.128 249.736C168.008 234.024 152 206.864 152 176ZM421.832 370.584C403.696 317.032 362.32 273.752 309.456 253.192C330.6 234.144 344 206.64 344 176C344 118.656 297.344 72 240 72C182.656 72 136 118.656 136 176C136 206.64 149.4 234.144 170.552 253.192C117.688 273.76 76.312 317.032 58.176 370.584C31.672 333.792 16 288.704 16 240C16 116.488 116.488 16 240 16C363.512 16 464 116.488 464 240C464 288.704 448.328 333.792 421.832 370.584Z" fill="#FEFEFE"/>
</svg>
